<svg width="24" height="24" viewBox="0 0 24 24" fill="none" xmlns="http://www.w3.org/2000/svg">
  <path
    d="M8 12H16M7.8 17H16.2C17.8802 17 18.7202 17 19.362 16.8183C19.9265 16.6586 20.3854 16.4036 20.673 16.09C21 15.7335 21 15.2668 21 14.3333V9.66667C21 8.73325 21 8.26654 20.673 7.91002C20.3854 7.59641 19.9265 7.34144 19.362 7.18166C18.7202 7 17.8802 7 16.2 7H7.8C6.11984 7 5.27976 7 4.63803 7.18166C4.07354 7.34144 3.6146 7.59641 3.32698 7.91002C3 8.26654 3 8.73325 3 9.66667V14.3333C3 15.2668 3 15.7335 3.32698 16.09C3.6146 16.4036 4.07354 16.6586 4.63803 16.8183C5.27976 17 6.11984 17 7.8 17Z"
    stroke="black" stroke-width="2" stroke-linecap="round" stroke-linejoin="round" />
</svg>