<svg fill="none" height="24" viewBox="0 0 24 24" width="24" xmlns="http://www.w3.org/2000/svg"><g fill="#000"><path clip-rule="evenodd" d="m5 5c0-1.10457.89543-2 2-2h10c1.1046 0 2 .89543 2 2v14c0 1.1046-.8954 2-2 2h-10c-1.10457 0-2-.8954-2-2zm1.5 0c0-.27614.22386-.5.5-.5h10c.2761 0 .5.22386.5.5v14c0 .2761-.2239.5-.5.5h-10c-.27614 0-.5-.2239-.5-.5z" fill-rule="evenodd"/><path d="m2.25 5c-.41421 0-.75.33579-.75.75v12.5c0 .4142.33579.75.75.75s.75-.3358.75-.75v-12.5c0-.41421-.33579-.75-.75-.75z"/><path d="m21.75 5c-.4142 0-.75.33579-.75.75v12.5c0 .4142.3358.75.75.75s.75-.3358.75-.75v-12.5c0-.41421-.3358-.75-.75-.75z"/></g></svg>